PathFileType	4	(X/Y/Z)	Patient5_TMGait_0pt45_1_left_10.trc.trc
DataRate	CameraRate	NumFrames	NumMarkers	Units	OrigDataRate	OrigDataStartFrame	OrigNumFrames
55.776892430279	55.776892430279	7	32	mm	55.776892430279	71	       141
Frame#	Time	R.ASIS			L.ASIS			Chest			R.Shoulder			Neck			L.Shoulder			L.Elbow			L.Wrist			R.Elbow			R.Wrist			L.Thigh.Superior			L.Thigh.Lateral			L.Thigh.Inferior			L.Patella			L.Shank.Superior			L.Shank.Lateral			L.Shank.Inferior			L.Heel			L.Midfoot.Lateral			L.Midfoot.Superior			L.Toe			R.Thigh.Superior			R.Thigh.Lateral			R.Thigh.Inferior			R.Patella			R.Shank.Superior			R.Shank.Lateral			R.Shank.Inferior			R.Heel			R.Midfoot.Lateral			R.Midfoot.Superior			R.Toe			
		X1	Y1	Z1	X2	Y2	Z2	X3	Y3	Z3	X4	Y4	Z4	X5	Y5	Z5	X6	Y6	Z6	X7	Y7	Z7	X8	Y8	Z8	X9	Y9	Z9	X10	Y10	Z10	X11	Y11	Z11	X12	Y12	Z12	X13	Y13	Z13	X14	Y14	Z14	X15	Y15	Z15	X16	Y16	Z16	X17	Y17	Z17	X18	Y18	Z18	X19	Y19	Z19	X20	Y20	Z20	X21	Y21	Z21	X22	Y22	Z22	X23	Y23	Z23	X24	Y24	Z24	X25	Y25	Z25	X26	Y26	Z26	X27	Y27	Z27	X28	Y28	Z28	X29	Y29	Z29	X30	Y30	Z30	X31	Y31	Z31	X32	Y32	Z32	

71	16.405000000000	1009.589149508363	1010.110999914181	541.586652595796	1023.730385538441	962.295727935066	306.571686019996	1070.246101771961	1446.687411349020	422.491291126996	942.109259129238	1516.726192429061	566.190468172273	953.143103287225	1568.247973495781	380.049893593679	1050.020890332852	1505.112379251982	219.358573008519	1067.670215118787	1171.782640793894	110.585477402457	1216.385048467130	933.972071455150	182.728124871342	836.297434365862	1201.846267826008	701.523274722391	1064.647424958360	1023.925773702013	675.655003838096	1032.123613195384	736.546001013147	321.044145073400	952.675897906391	668.259618793619	281.170865759357	1013.727104904134	606.799609509087	349.653673058798	1002.989087371082	492.492595679859	363.286279038608	944.786614068670	392.437071790919	385.843601056182	878.230127195718	327.890568857275	307.822578124587	897.894436199186	275.972057487340	399.895515697954	740.142809362804	51.555101808941	400.671132907708	830.778297336213	29.063821416996	343.389330894139	925.976246268224	88.030497073629	392.321741235172	1033.682910654860	43.874948970959	398.729728626312	1087.615468031866	815.355426965782	592.729398573926	1036.624142126278	726.720421319751	658.718439532410	1129.713201154693	692.165915283920	591.175849916197	1163.406023003002	599.826517407167	637.006129127028	1128.255567932818	484.717734693908	609.656176226526	1056.644795871343	418.616562484134	692.810873604624	1116.023979190997	345.246008954474	618.183818484458	1004.544031260866	116.594963003519	600.631821536763	1083.651142587472	84.612596667148	673.062803951897	1186.740280841305	156.165331517229	659.013235769932	1291.534511534773	116.935815437059	657.137498505967	
72	16.422928571429	1008.231266232078	1008.820907304145	541.674959909151	1020.707318541770	962.067140912280	306.525925060763	1065.917110982993	1446.657589090425	423.569321271808	938.421905206205	1515.714673479706	568.364287419573	947.922296576351	1567.733373397981	382.230059957037	1043.828874370462	1505.315661176575	220.544716248159	1060.045290881714	1171.975097026458	111.107311127426	1206.953929824975	932.741820133473	182.376264167531	834.452465712045	1200.530835019582	704.326142613585	1062.393765877753	1022.372632049866	676.548053654588	1028.576484474226	735.872608170021	320.896322374527	948.601994683263	667.872599618601	281.453499584026	1009.575191753962	606.287445897196	349.527121070025	997.946531553687	491.734662246750	363.126952314191	938.958374721443	391.981598933150	385.838417225316	872.010786535518	327.870903466600	307.954375418620	891.379487449209	275.842714819712	399.990934101026	732.145382307726	51.942209723043	400.869759823510	822.716641934587	29.376060403711	343.544418320413	918.002481134880	88.118818463855	392.391770447961	1025.615067213115	43.842248441580	398.715377807766	1085.864362917589	812.829293843130	590.286538662414	1034.914697446026	724.221795818636	656.915874235021	1126.720293858758	689.212381197411	587.932621952380	1160.529744967432	597.040661467289	633.320771235088	1126.088426955643	482.275153426100	606.492960972400	1055.870038085874	415.503262087658	690.356527819707	1115.295054675218	342.632217036077	615.299689215660	1006.124021040200	112.850412227167	598.746234571863	1086.131013182998	81.788552970272	670.602560547653	1188.332484043775	154.388854645766	655.674307304423	1293.510293177009	116.243604894069	653.031169989590	
73	16.440857142857	1006.819825672509	1007.564536258851	541.945623047216	1017.655308943653	961.854084523794	306.593181471742	1061.775098703620	1446.625561549662	424.802765784389	934.986357898108	1514.742544411243	570.712634914885	942.882423549195	1567.244892764369	384.583586117257	1037.778979613199	1505.507780844910	221.877115678896	1052.294212932033	1172.215333750647	111.622930819083	1197.310621161898	931.422707859100	181.659581793101	832.708475136642	1199.280612728495	707.206246379353	1060.082701281017	1020.725540809976	677.270427802859	1024.943274522748	735.246390987270	320.628273908344	944.485003087007	667.577639765922	281.716915212695	1005.526992725136	605.961682799037	349.386886912708	992.842692227610	491.057216406042	362.895860314003	933.093669098515	391.623243438483	385.763802897354	865.725547205159	327.941521967239	308.025615643691	884.847431870644	275.793778038256	400.008949895224	724.164549885287	52.455716669554	401.041760266823	814.666115238158	29.758751880178	343.677252379707	910.065208831346	88.199017925843	392.439671318879	1017.539049462641	43.804833764371	398.697770838240	1083.556955927084	810.003780241793	588.089277862313	1032.405124014720	721.461060454860	655.236488328028	1123.015097993628	685.993137836651	584.950033261521	1156.770792190464	593.998083520792	629.880537232509	1123.290222676131	479.661940733649	603.388495470810	1054.314640598429	412.087278022211	687.771989334545	1114.066458301878	339.830282956462	612.376584124087	1007.550295602217	108.798922629675	596.452372831975	1088.335238818144	78.688418655240	667.855892320917	1189.579123915495	152.463002158024	652.336044204059	1295.185471700697	115.535078150583	649.102054316946	
74	16.458785714286	1005.339300689456	1006.357134321271	542.404817317068	1014.569736735440	961.666266338065	306.783222711669	1057.831814369269	1446.589369566994	426.201302706294	931.811418893967	1513.808161681664	573.240121233141	938.055606305856	1566.790803564687	387.116942066998	1031.915572003091	1505.706220606943	223.371545982957	1044.450639300646	1172.526946493469	112.143410506854	1187.488386949289	930.057087683344	180.619715784987	831.036158869203	1198.080345776386	710.127415517882	1057.748590307416	1019.056090220068	677.848917764301	1021.254421015298	734.716668896543	320.324898407581	940.338074973897	667.386369789945	281.948028781075	1001.540785829945	605.797860852100	349.254268774965	987.675510221545	490.466646111709	362.610430252067	927.208181300952	391.361892286083	385.622444828792	859.374284664679	328.114075567819	308.023976661326	878.293814028549	275.828153393866	399.945708555583	716.199093621756	53.103250748574	401.163393985806	806.627797196758	30.196620796864	343.779433756324	902.165446383128	88.281321285079	392.446433519897	1009.448143941851	43.763319593557	398.680748817945	1080.772678497663	806.972314586090	586.198349079987	1029.180346597997	718.508349536115	653.720828590225	1118.742259391488	682.627871896982	582.300683275691	1152.270512692883	590.796282589382	626.750634895582	1119.927945215080	476.948514988654	600.375034865884	1052.013893740768	408.474745180826	685.057275654987	1112.353261942129	336.940039933941	609.412016231996	1008.701093817265	104.621617916349	593.659762122844	1090.106267827118	75.411869591224	664.746253322078	1190.376566448354	150.428173214580	648.961661748328	1296.432428130936	114.792309023130	645.335004602614	
75	16.476714285714	1003.782132173394	1005.205882209732	543.055121034830	1011.468019327832	961.518179423030	307.105182494848	1054.091847292139	1446.546569618124	427.768491350123	928.895676799843	1512.907126911842	575.944364456244	933.467624513219	1566.375874371474	389.827564699379	1026.278307371681	1505.924119543095	225.036655210521	1036.550003579208	1172.928846057778	112.675737395754	1177.519210681893	928.686780895856	179.308298867078	829.422958019652	1196.912385952417	713.063161086355	1055.429492245844	1017.417617131033	678.316691078299	1017.528444328745	734.317493385134	320.070653177221	936.162817329221	667.309958288253	282.141431336264	997.543197160889	605.753204278540	349.139661338350	982.426239047129	489.965659687506	362.281471866894	921.288482798813	391.197395524489	385.408847403263	852.936766221248	328.400677049647	307.933308845208	871.706168823945	275.947880570733	399.794100565534	708.245949220286	53.877003316716	401.214100093532	798.600538182389	30.665383695405	343.843768320189	894.301690805151	88.375564849178	392.391821116007	1001.334944571300	43.720697945395	398.667515352753	1077.618586441755	803.824690803042	584.653599315297	1025.357149874016	715.426049717903	652.382708778057	1114.071244551696	679.213442787256	580.023813995558	1147.192220383144	587.505702618973	623.965232348041	1116.063254050205	474.175397172669	597.474423243925	1049.009507631188	404.755400175667	682.211659157573	1110.159913321090	334.034016032381	606.404897850254	1009.424448804287	100.476900322729	590.312483293302	1091.261698959794	72.037937828773	661.231032211040	1190.599318764633	148.292870023893	645.535538173923	1297.098729065595	113.953178555262	641.732741292659	
76	16.494642857143	1002.151564306494	1004.107597148555	543.894610389983	1008.389824858389	961.430283388750	307.561140282341	1050.553912675992	1446.494057684903	429.501227184973	926.228348481261	1512.034251041256	578.815437296023	929.136556220152	1566.000952410132	392.704980664846	1020.898211191175	1506.168287608895	226.873423597258	1028.632508001813	1173.434038386923	113.223417125083	1167.436805380135	927.349341893796	177.787820698249	827.870821922509	1195.759921707747	715.993575094858	1053.164287831074	1015.842915058216	678.713704863363	1013.761836469750	734.057797668874	319.918586019878	931.942445568841	667.356215927717	282.300213786653	993.445824556280	605.774297724114	349.034175502748	977.063126713145	489.552225021308	361.905972655278	915.301181287691	391.129236507800	385.109402720589	846.374147804792	328.811961034320	307.738729840463	865.066523966088	276.152911139360	399.544085660844	700.300755405303	54.753017053602	401.183077852795	790.581375781024	31.138242826705	343.864658904083	886.469538270263	88.487945845656	392.259435554329	993.193404302231	43.681827493978	398.659078319993	1074.209651615605	800.639897783178	583.484645322651	1021.073010786111	712.265372724426	651.216754871736	1109.177171303010	675.819379393724	578.131275242015	1141.710033927833	584.167513466569	621.533188047542	1111.759719465180	471.360171544052	594.702928417915	1045.348427132607	400.998659524447	679.240622735087	1107.478704132414	331.151871164784	603.357877937908	1009.540465763748	96.490734653022	586.395811386530	1091.600637721344	68.616128740983	657.299397481826	1190.104676481913	146.029346869680	642.060977654834	1297.012882674932	112.908272743618	638.302451332197	
77	16.512571428571	1000.464265689815	1003.046493236138	544.915978173254	1005.390087416823	961.425165811898	308.141267803277	1047.213210286381	1446.426573429784	431.391083259752	923.791422784362	1511.183311081793	581.836893966865	925.071859447839	1565.661180041771	395.734048467106	1015.794873632104	1506.437469789198	228.877014521408	1020.743842643749	1174.048448769254	113.787183553566	1157.279509879066	926.075041089623	176.130588722630	826.390334625461	1194.608117172536	718.904205601127	1050.990002978078	1014.346299631731	679.085888739653	1009.932443527064	733.922049525992	319.880748576077	927.642513000165	667.526557778745	282.433402263934	989.166999093622	605.808814048960	348.913133545697	971.549361698644	489.218843345871	361.466548187515	909.207300733354	391.154440020274	384.708116673182	839.637390685526	329.353346979878	307.434571605457	858.355943159976	276.438980350903	399.187370947026	692.358876670796	55.694957578300	401.073552768882	782.566315113794	31.591793284834	343.840162137397	878.661916057772	88.619374862705	392.041121139777	985.021583149114	43.652598372342	398.652789494005	1070.653713167144	797.477809914321	582.715994772248	1016.471900327926	709.063128736767	650.207796864275	1104.220378618355	672.484021710880	576.617447985429	1135.993367046089	580.794014059453	619.449210083392	1107.087697779830	468.505598214677	592.076509136318	1041.077778646166	397.250807628545	676.161036098486	1104.288273630596	328.298160480181	600.280439494626	1008.847793396036	92.750868127004	581.936064820771	1090.911526221822	65.160538050924	652.966648959607	1188.738764723501	143.574339670548	638.555418644384	1295.992320206630	111.505452444711	635.043172481199	
